<?xml version="1.0" encoding="UTF-8"?>
<svg id="_Слой_2" data-name="Слой 2" xmlns="http://www.w3.org/2000/svg" viewBox="0 0 292.57 384">
  <defs>
    <style>
      .cls-1 {
        fill: #4d1bbc;
      }
    </style>
  </defs>
  <g id="_Слой_1-2" data-name="Слой 1">
    <path class="cls-1" d="M36.02,0c46.51,0,93.01,0,139.52,0,0,28.12-.01,56.24,0,84.36,0,17.11,11.02,28.13,28.13,28.14,28.12,.01,56.25,0,84.37,0,1.44,0,2.88,0,4.51,0v5c0,71.74,0,143.48,0,215.21,0,3.87,.06,7.75-.06,11.62-.56,17.44-12.81,33.18-29.5,37.97-2.13,.61-4.29,1.14-6.44,1.7H36.02c-.2-.15-.38-.37-.6-.43C11.47,377.9,.02,363.4,.02,338.73c0-71.84,0-143.67,0-215.51,0-27.11-.05-54.22,.02-81.33C.07,27.55,5.71,15.7,17.65,7.77,23.09,4.16,29.85,2.53,36.02,0Zm108.06,172.5c3.87,0,7.74,0,11.62,0,23.23,0,46.47-.03,69.7,.02,5.26,0,9.28-2.02,11.44-6.87,3.44-7.71-2.32-15.63-11.34-15.64-45.59-.03-91.18-.01-136.78-.01-8.87,0-17.74,0-26.61,0-5.13,0-8.92,2.3-10.94,7.02-3.25,7.61,2.43,15.45,11.22,15.46,27.23,.05,54.46,.02,81.69,.02Zm-.08,60c27.11,0,54.21-.02,81.32,.02,5.08,0,9.04-1.81,11.31-6.47,3.79-7.77-1.88-16.03-11.06-16.04-40.22-.03-80.44-.01-120.66-.01-14.24,0-28.48,0-42.72,0-4.63,0-8.25,1.85-10.5,5.95-4.25,7.75,1.34,16.52,10.62,16.53,27.23,.06,54.46,.02,81.69,.02Zm-55.47,60c8.88,0,17.75,.04,26.63-.01,6.98-.04,12.06-4.7,12.2-11.07,.13-6.45-5.1-11.39-12.23-11.41-17.5-.04-35-.03-52.5,0-7.25,.01-12.35,4.7-12.34,11.25,.01,6.55,5.09,11.2,12.36,11.23,8.63,.03,17.25,0,25.88,0Z"/>
    <path class="cls-1" d="M286.73,89.99c-28.11,0-56.22,0-84.33,0-2.69,0-4.32-1.35-4.32-4.07,0-26.73,.05-53.46,.1-80.2,0-.09,.14-.17,.68-.8,2.68,1.99,5.64,3.77,8.1,6.09,24.38,22.95,48.71,45.96,72.94,69.05,2.83,2.69,5.03,6.04,7.52,9.08-.23,.29-.46,.57-.69,.86Z"/>
  </g>
</svg>