<?xml version="1.0" encoding="UTF-8"?>
<svg id="_Слой_2" data-name="Слой 2" xmlns="http://www.w3.org/2000/svg" viewBox="0 0 340.79 408.79">
  <defs>
    <style>
      .cls-1 {
        fill: #4d1bbc;
      }
    </style>
  </defs>
  <g id="_Слой_1-2" data-name="Слой 1">
    <path class="cls-1" d="M63.01,408.79c-4.64-.97-9.36-1.67-13.91-2.95C19.97,397.63,1.55,375.17,.27,344.59c-1.33-31.59,2.14-62.73,14.15-92.31,7.75-19.1,19.01-35.62,37.88-45.71,11.64-6.22,24.12-9.19,37.18-8.92,4.12,.09,8.45,2.17,12.21,4.21,6.06,3.29,11.67,7.39,17.55,11.02,34.19,21.11,68.4,21.09,102.56-.08,4.74-2.94,9.59-5.78,14.04-9.12,8.18-6.13,17.17-6.89,26.89-5.47,26.51,3.9,45.24,18.42,57.87,41.59,11.27,20.68,16.35,43.15,18.6,66.3,1.16,11.89,1.71,23.89,1.56,35.83-.43,35.66-24.91,62.2-60.38,66.11-.88,.1-1.73,.49-2.6,.75H63.01Z"/>
    <path class="cls-1" d="M266.41,98.37c.18,54.25-43.57,98.1-98.33,98.56-54.02,.46-98.37-43.69-98.64-98.2C69.15,44.21,113.27-.02,167.91,0c54.5,.02,98.32,43.78,98.49,98.37Z"/>
  </g>
</svg>